<?xml version="1.0" encoding="UTF-8" standalone="no"?>
<!DOCTYPE svg PUBLIC "-//W3C//DTD SVG 1.1//EN" "http://www.w3.org/Graphics/SVG/1.1/DTD/svg11.dtd">
<svg xmlns="http://www.w3.org/2000/svg" xmlns:xl="http://www.w3.org/1999/xlink" version="1.1" xmlns:dc="http://purl.org/dc/elements/1.1/" viewBox="493.9643 152.52231 569.5243 280.01275" width="569.5243" height="280.01275">
  <defs>
    <marker orient="auto" overflow="visible" markerUnits="strokeWidth" id="FilledArrow_Marker" stroke-linejoin="miter" stroke-miterlimit="10" viewBox="-1 -7 18 14" markerWidth="18" markerHeight="14" color="#666">
      <g>
        <path d="M 16 0 L 0 -6 L 0 6 Z" fill="currentColor" stroke="currentColor" stroke-width="1"/>
      </g>
    </marker>
    <marker orient="auto" overflow="visible" markerUnits="strokeWidth" id="UMLInheritance_Marker" stroke-linejoin="miter" stroke-miterlimit="10" viewBox="-1 -10 17 20" markerWidth="17" markerHeight="20" color="#666">
      <g>
        <path d="M 15 0 L 0 -8.75 L 0 8.75 Z" fill="none" stroke="currentColor" stroke-width="1"/>
      </g>
    </marker>
    <marker orient="auto" overflow="visible" markerUnits="strokeWidth" id="Box_Marker" stroke-linejoin="miter" stroke-miterlimit="10" viewBox="-7 -4 8 8" markerWidth="8" markerHeight="8" color="#666">
      <g>
        <rect x="-6" y="-3" width="6" height="6" fill="none" stroke="currentColor" stroke-width="1"/>
      </g>
    </marker>
    <marker orient="auto" overflow="visible" markerUnits="strokeWidth" id="StickArrow_Marker" stroke-linejoin="miter" stroke-miterlimit="10" viewBox="-1 -6 14 12" markerWidth="14" markerHeight="12" color="#797979">
      <g>
        <path d="M 12 0 L 0 0 M 0 -4.5 L 12 0 L 0 4.5" fill="none" stroke="currentColor" stroke-width="1"/>
      </g>
    </marker>
  </defs>
  <g id="03__Simple_Edges" fill-opacity="1" stroke-opacity="1" stroke="none" stroke-dasharray="none" fill="none">
    <title>00. Examples</title>
    <g id="03__Simple_Edges_Layer_1">
      <title>Layer 1</title>
      <g id="Graphic_52">
        <rect x="494.4643" y="270.5287" width="100.25975" height="44" fill="white"/>
        <path d="M 494.4643 270.5287 L 594.72405 270.5287 L 594.72405 314.5287 L 494.4643 314.5287 Z" stroke="gray" stroke-linecap="round" stroke-linejoin="round" stroke-dasharray="1.0,5.0" stroke-width="1"/>
        <text transform="translate(499.4643 283.3047)" fill="black">
          <tspan font-family="Helvetica Neue" font-size="16" fill="black" x="14.465875" y="15" xml:space="preserve">identifier</tspan>
        </text>
      </g>
      <g id="Line_51">
        <line x1="720.9522" y1="292.5287" x2="612.62405" y2="292.5287" marker-end="url(#FilledArrow_Marker)" stroke="#666" stroke-linecap="round" stroke-linejoin="round" stroke-width="1"/>
      </g>
      <g id="Graphic_49">
        <rect x="947.44" y="270.5287" width="100.25975" height="44" fill="white"/>
        <rect x="947.44" y="270.5287" width="100.25975" height="44" stroke="gray" stroke-linecap="round" stroke-linejoin="round" stroke-width="1"/>
        <text transform="translate(947.44 283.3047)" fill="black">
          <tspan font-family="Helvetica Neue" font-size="16" fill="black" x="5.025875" y="15" xml:space="preserve">Organization</tspan>
        </text>
      </g>
      <g id="Graphic_58">
        <rect x="720.9522" y="270.5287" width="100.25975" height="44" fill="white"/>
        <rect x="720.9522" y="270.5287" width="100.25975" height="44" stroke="gray" stroke-linecap="round" stroke-linejoin="round" stroke-width="1"/>
        <text transform="translate(725.9522 283.3047)" fill="black">
          <tspan font-family="Helvetica Neue" font-size="16" fill="black" x="9.713875" y="15" xml:space="preserve">Employee</tspan>
        </text>
      </g>
      <g id="Line_56">
        <line x1="821.2119" y1="292.5287" x2="929.54" y2="292.5287" marker-end="url(#FilledArrow_Marker)" stroke="#666" stroke-linecap="round" stroke-linejoin="round" stroke-width="1"/>
      </g>
      <g id="Graphic_61">
        <rect x="720.9522" y="153.02231" width="100.25975" height="44" fill="white"/>
        <rect x="720.9522" y="153.02231" width="100.25975" height="44" stroke="gray" stroke-linecap="round" stroke-linejoin="round" stroke-width="1"/>
        <text transform="translate(725.9522 165.79831)" fill="black">
          <tspan font-family="Helvetica Neue" font-size="16" fill="black" x="19.945875" y="15" xml:space="preserve">Person</tspan>
        </text>
      </g>
      <g id="Line_60">
        <line x1="771.082" y1="270.5287" x2="771.082" y2="213.52231" marker-end="url(#UMLInheritance_Marker)" stroke="#666" stroke-linecap="round" stroke-linejoin="round" stroke-width="1"/>
      </g>
      <g id="Graphic_65">
        <ellipse cx="771.082" cy="410.03506" rx="50.1299541785613" ry="22.0000351538417" fill="white"/>
        <ellipse cx="771.082" cy="410.03506" rx="50.1299541785613" ry="22.0000351538417" stroke="gray" stroke-linecap="round" stroke-linejoin="round" stroke-width="1"/>
        <text transform="translate(735.9781 401.83906)" fill="black">
          <tspan font-family="Helvetica Neue" font-size="14" fill="black" x="25.2479" y="13" xml:space="preserve">Me</tspan>
        </text>
      </g>
      <g id="Graphic_64">
        <ellipse cx="544.5942" cy="410.03506" rx="50.1299541785613" ry="22.0000351538417" fill="white"/>
        <path d="M 580.0413 394.47873 C 599.6183 403.07026 599.6183 416.99987 580.0413 425.5914 C 560.4644 434.18297 528.72396 434.18297 509.14704 425.5914 C 489.57 416.99987 489.57 403.07026 509.14704 394.47873 C 528.72396 385.88716 560.4644 385.88716 580.0413 394.47873" stroke="gray" stroke-linecap="round" stroke-linejoin="round" stroke-dasharray="1.0,5.0" stroke-width="1"/>
        <text transform="translate(509.4903 394.67106)" fill="black">
          <tspan font-family="Helvetica Neue" font-size="14" fill="black" x="7.859901" y="13" xml:space="preserve">9723454</tspan>
          <tspan font-family="Helvetica Neue" font-size="12" fill="black" x="6.237901" y="27.391998" xml:space="preserve">^^identifer</tspan>
        </text>
      </g>
      <g id="Line_89">
        <line x1="720.9521" y1="410.03506" x2="612.6241" y2="410.03506" marker-end="url(#FilledArrow_Marker)" stroke="#666" stroke-linecap="round" stroke-linejoin="round" stroke-dasharray="1.0,4.0" stroke-width="1"/>
      </g>
      <g id="Line_92">
        <line x1="771.082" y1="388.03505" x2="771.082" y2="331.0287" marker-end="url(#UMLInheritance_Marker)" stroke="#666" stroke-linecap="round" stroke-linejoin="round" stroke-dasharray="1.0,5.0" stroke-width="1"/>
      </g>
      <g id="Line_93">
        <line x1="544.5942" y1="388.03505" x2="544.5942" y2="331.0287" marker-end="url(#UMLInheritance_Marker)" stroke="#666" stroke-linecap="round" stroke-linejoin="round" stroke-dasharray="1.0,5.0" stroke-width="1"/>
      </g>
      <g id="Graphic_106">
        <text transform="translate(859.432 294.18915)" fill="black">
          <tspan font-family="Helvetica Neue" font-size="12" fill="black" x="2344791e-19" y="11" xml:space="preserve">employer</tspan>
        </text>
      </g>
      <g id="Graphic_108">
        <text transform="translate(630.4595 294.18915)" fill="black">
          <tspan font-family="Helvetica Neue" font-size="12" fill="black" x="0" y="11" xml:space="preserve">employeeId</tspan>
        </text>
      </g>
      <g id="Graphic_120">
        <text transform="translate(776.2119 350.2689)" fill="#235e00">
          <tspan font-family="Helvetica Neue" font-style="italic" font-size="10" fill="#235e00" x="0" y="10" xml:space="preserve">rdf:type</tspan>
        </text>
      </g>
      <g id="Graphic_121">
        <text transform="translate(549.72405 350.2689)" fill="#235e00">
          <tspan font-family="Helvetica Neue" font-style="italic" font-size="10" fill="#235e00" x="0" y="10" xml:space="preserve">rdf:type</tspan>
        </text>
      </g>
      <g id="Graphic_123">
        <text transform="translate(776.2119 227.6355)" fill="#235e00">
          <tspan font-family="Helvetica Neue" font-style="italic" font-size="10" fill="#235e00" x="0" y="10" xml:space="preserve">rdfs:subClassOf</tspan>
        </text>
      </g>
      <g id="Graphic_126">
        <rect x="494.4643" y="153.02231" width="100.25975" height="44" fill="white"/>
        <path d="M 494.4643 153.02231 L 594.72405 153.02231 L 594.72405 197.02231 L 494.4643 197.02231 Z" stroke="gray" stroke-linecap="round" stroke-linejoin="round" stroke-dasharray="1.0,5.0" stroke-width="1"/>
        <text transform="translate(499.4643 165.79831)" fill="black">
          <tspan font-family="Helvetica Neue" font-size="16" fill="black" x="10.017875" y="15" xml:space="preserve">xsd:string</tspan>
        </text>
      </g>
      <g id="Line_125">
        <line x1="544.5942" y1="270.5287" x2="544.5942" y2="213.52231" marker-end="url(#UMLInheritance_Marker)" stroke="#666" stroke-linecap="round" stroke-linejoin="round" stroke-width="1"/>
      </g>
      <g id="Graphic_124">
        <text transform="translate(549.72405 227.6355)" fill="#235e00">
          <tspan font-family="Helvetica Neue" font-style="italic" font-size="10" fill="#235e00" x="0" y="10" xml:space="preserve">owl:Restriction</tspan>
        </text>
      </g>
      <g id="Graphic_127">
        <text transform="translate(630.4595 411.8199)" fill="black">
          <tspan font-family="Helvetica Neue" font-size="12" fill="black" x="0" y="11" xml:space="preserve">employeeId</tspan>
        </text>
      </g>
      <g id="Line_128">
        <line x1="501.9752" y1="410.61033" x2="590.25134" y2="410.67513" stroke="black" stroke-linecap="round" stroke-linejoin="round" stroke-width="1"/>
      </g>
      <g id="Graphic_129">
        <ellipse cx="997.5699" cy="410.03506" rx="50.1299541785614" ry="22.0000351538417" fill="white"/>
        <ellipse cx="997.5699" cy="410.03506" rx="50.1299541785614" ry="22.0000351538417" stroke="gray" stroke-linecap="round" stroke-linejoin="round" stroke-width="1"/>
        <text transform="translate(962.466 401.83906)" fill="black">
          <tspan font-family="Helvetica Neue" font-size="14" fill="black" x="9.182901" y="13" xml:space="preserve">BigCorp</tspan>
        </text>
      </g>
      <g id="Line_131">
        <line x1="997.5699" y1="388.03505" x2="997.5699" y2="331.0287" marker-end="url(#UMLInheritance_Marker)" stroke="#666" stroke-linecap="round" stroke-linejoin="round" stroke-dasharray="1.0,5.0" stroke-width="1"/>
      </g>
      <g id="Graphic_130">
        <text transform="translate(1002.6998 350.2689)" fill="#235e00">
          <tspan font-family="Helvetica Neue" font-style="italic" font-size="10" fill="#235e00" x="0" y="10" xml:space="preserve">rdf:type</tspan>
        </text>
      </g>
      <g id="Line_132">
        <line x1="821.2119" y1="410.03506" x2="929.54" y2="410.03506" marker-end="url(#FilledArrow_Marker)" stroke="#666" stroke-linecap="round" stroke-linejoin="round" stroke-dasharray="1.0,4.0" stroke-width="1"/>
      </g>
      <g id="Graphic_133">
        <text transform="translate(859.432 411.8199)" fill="black">
          <tspan font-family="Helvetica Neue" font-size="12" fill="black" x="2344791e-19" y="11" xml:space="preserve">employer</tspan>
        </text>
      </g>
      <g id="Graphic_134">
        <text transform="translate(618.7295 270.5287)" fill="#235e00">
          <tspan font-family="Helvetica Neue" font-style="italic" font-size="10" fill="#235e00" x="0" y="10" xml:space="preserve">owl:ObjectProperty</tspan>
        </text>
      </g>
      <g id="Graphic_135">
        <text transform="translate(841.366 270.5287)" fill="#235e00">
          <tspan font-family="Helvetica Neue" font-style="italic" font-size="10" fill="#235e00" x="0" y="10" xml:space="preserve">owl:ObjectProperty</tspan>
        </text>
      </g>
      <g id="Graphic_136">
        <text transform="translate(836.266 388.03506)" fill="#235e00">
          <tspan font-family="Helvetica Neue" font-style="italic" font-size="10" fill="#235e00" x="0" y="10" xml:space="preserve">owl:DatatypeProperty</tspan>
        </text>
      </g>
      <g id="Graphic_138">
        <text transform="translate(613.6295 388.03506)" fill="#235e00">
          <tspan font-family="Helvetica Neue" font-style="italic" font-size="10" fill="#235e00" x="0" y="10" xml:space="preserve">owl:DatatypeProperty</tspan>
        </text>
      </g>
      <g id="Line_141">
        <line x1="827.7119" y1="175.02231" x2="929.54" y2="175.02231" marker-end="url(#FilledArrow_Marker)" marker-start="url(#Box_Marker)" stroke="#666" stroke-linecap="round" stroke-linejoin="round" stroke-width="1"/>
      </g>
      <g id="Graphic_140">
        <path d="M 1062.9886 166.04191 C 1062.9886 161.8738 1061.5211 161.35811 1050.8017 157.23311 L 1050.6884 157.19043 C 1039.9124 153.02231 1039.8003 153.02231 1028.7411 153.02231 C 1014.0156 153.02231 947.44 153.02231 947.44 153.02231 L 947.44 197.02231 L 1062.9886 197.02231 L 1062.9886 166.04191 Z" fill="white"/>
        <path d="M 1062.9886 166.04191 C 1062.9886 161.8738 1061.5211 161.35811 1050.8017 157.23311 L 1050.6884 157.19043 C 1039.9124 153.02231 1039.8003 153.02231 1028.7411 153.02231 C 1014.0156 153.02231 947.44 153.02231 947.44 153.02231 L 947.44 197.02231 L 1062.9886 197.02231 L 1062.9886 166.04191 Z M 1062.9886 165.8272 C 1062.9886 161.8738 1062.8754 161.8738 1039.8003 161.8738 L 1039.8003 161.8738 C 1039.8003 153.06543 1039.8003 153.02231 1029.4183 153.02231" stroke="gray" stroke-linecap="round" stroke-linejoin="round" stroke-width="1"/>
        <text transform="translate(950.44 162.71431)" fill="black">
          <tspan font-family="Helvetica Neue" font-size="11" fill="black" x="0" y="10" xml:space="preserve">comment=“actually a </tspan>
          <tspan font-family="Helvetica Neue" font-size="11" fill="black" x="0" y="22.307999" xml:space="preserve">legal natural person”</tspan>
        </text>
      </g>
      <g id="Graphic_139">
        <text transform="translate(831.911 153.02231)" fill="#235e00">
          <tspan font-family="Helvetica Neue" font-style="italic" font-size="10" fill="#235e00" x="8668621e-19" y="10" xml:space="preserve">owl:AnnotationProperty</tspan>
        </text>
      </g>
      <g id="Graphic_142">
        <path d="M 514.4643 229.6935 C 514.4643 227.7989 514.2103 227.5645 512.3549 225.6895 L 512.3353 225.6701 C 510.4701 223.7755 510.4507 223.7755 508.5365 223.7755 C 505.9877 223.7755 494.4643 223.7755 494.4643 223.7755 L 494.4643 243.7755 L 514.4643 243.7755 L 514.4643 229.6935 Z" fill="#ebebeb"/>
        <path d="M 514.4643 229.6935 C 514.4643 227.7989 514.2103 227.5645 512.3549 225.6895 L 512.3353 225.6701 C 510.4701 223.7755 510.4507 223.7755 508.5365 223.7755 C 505.9877 223.7755 494.4643 223.7755 494.4643 223.7755 L 494.4643 243.7755 L 514.4643 243.7755 L 514.4643 229.6935 Z M 514.4643 229.5959 C 514.4643 227.7989 514.4447 227.7989 510.4507 227.7989 L 510.4507 227.7989 C 510.4507 223.7951 510.4507 223.7755 508.6537 223.7755" stroke="gray" stroke-linecap="round" stroke-linejoin="round" stroke-width="1"/>
      </g>
      <g id="Line_143">
        <line x1="544.72405" y1="233.7755" x2="528.3643" y2="233.7755" marker-end="url(#StickArrow_Marker)" stroke="#797979" stroke-linecap="round" stroke-linejoin="round" stroke-width="1"/>
      </g>
    </g>
  </g>
</svg>
