<?xml version="1.0" encoding="UTF-8" standalone="no"?>
<!DOCTYPE svg PUBLIC "-//W3C//DTD SVG 1.1//EN" "http://www.w3.org/Graphics/SVG/1.1/DTD/svg11.dtd">
<svg xmlns:xl="http://www.w3.org/1999/xlink" xmlns:dc="http://purl.org/dc/elements/1.1/" version="1.1" xmlns="http://www.w3.org/2000/svg" viewBox="578.63006 427.50467 242.75015 45" width="242.75015" height="45">
  <defs/>
  <g id="01__Nodes" stroke-dasharray="none" stroke="none" fill-opacity="1" fill="none" stroke-opacity="1">
    <title>01. Nodes</title>
    <g id="01__Nodes_GraphViz_dot">
      <title>GraphViz dot</title>
      <g id="Graphic_131">
        <path d="M 710.0051 457.92267 C 710.0051 456.02807 709.7511 455.79367 707.8957 453.91867 L 707.8761 453.89927 C 706.0109 452.00467 705.9915 452.00467 704.0773 452.00467 C 701.5285 452.00467 690.0051 452.00467 690.0051 452.00467 L 690.0051 472.00467 L 710.0051 472.00467 L 710.0051 457.92267 Z" fill="#ebebeb"/>
        <path d="M 710.0051 457.92267 C 710.0051 456.02807 709.7511 455.79367 707.8957 453.91867 L 707.8761 453.89927 C 706.0109 452.00467 705.9915 452.00467 704.0773 452.00467 C 701.5285 452.00467 690.0051 452.00467 690.0051 452.00467 L 690.0051 472.00467 L 710.0051 472.00467 L 710.0051 457.92267 Z M 710.0051 457.82507 C 710.0051 456.02807 709.9855 456.02807 705.9915 456.02807 L 705.9915 456.02807 C 705.9915 452.02427 705.9915 452.00467 704.1945 452.00467" stroke="gray" stroke-linecap="round" stroke-linejoin="round" stroke-width="1"/>
      </g>
      <g id="Graphic_130">
        <path d="M 820.8802 441.02427 C 820.8802 436.85615 819.7626 436.34047 811.5988 432.21547 L 811.5126 432.1728 C 803.3057 428.00467 803.2204 428.00467 794.7979 428.00467 C 783.5832 428.00467 732.8802 428.00467 732.8802 428.00467 L 732.8802 472.00467 L 820.8802 472.00467 L 820.8802 441.02427 Z" fill="white"/>
        <path d="M 820.8802 441.02427 C 820.8802 436.85615 819.7626 436.34047 811.5988 432.21547 L 811.5126 432.1728 C 803.3057 428.00467 803.2204 428.00467 794.7979 428.00467 C 783.5832 428.00467 732.8802 428.00467 732.8802 428.00467 L 732.8802 472.00467 L 820.8802 472.00467 L 820.8802 441.02427 Z M 820.8802 440.80955 C 820.8802 436.85615 820.794 436.85615 803.2204 436.85615 L 803.2204 436.85615 C 803.2204 428.0478 803.2204 428.00467 795.3136 428.00467" stroke="gray" stroke-linecap="round" stroke-linejoin="round" stroke-width="1"/>
        <text transform="translate(737.8802 442.83667)" fill="black">
          <tspan font-family="Helvetica Neue" font-size="12" fill="black" x="0" y="11" xml:space="preserve">annotations</tspan>
        </text>
      </g>
      <g id="Graphic_132">
        <path d="M 667.1301 441.02427 C 667.1301 436.85615 666.0125 436.34047 657.8487 432.21547 L 657.7625 432.1728 C 649.5556 428.00467 649.4702 428.00467 641.04774 428.00467 C 629.833 428.00467 579.13006 428.00467 579.13006 428.00467 L 579.13006 472.00467 L 667.1301 472.00467 L 667.1301 441.02427 Z" fill="white"/>
        <path d="M 667.1301 441.02427 C 667.1301 436.85615 666.0125 436.34047 657.8487 432.21547 L 657.7625 432.1728 C 649.5556 428.00467 649.4702 428.00467 641.04774 428.00467 C 629.833 428.00467 579.13006 428.00467 579.13006 428.00467 L 579.13006 472.00467 L 667.1301 472.00467 L 667.1301 441.02427 Z M 667.1301 440.80955 C 667.1301 436.85615 667.0438 436.85615 649.4702 436.85615 L 649.4702 436.85615 C 649.4702 428.0478 649.4702 428.00467 641.5634 428.00467" stroke="gray" stroke-linecap="round" stroke-linejoin="round" stroke-width="1"/>
        <text transform="translate(584.13006 442.83667)" fill="black">
          <tspan font-family="Helvetica Neue" font-size="12" fill="black" x="0" y="11" xml:space="preserve">axioms</tspan>
        </text>
      </g>
    </g>
  </g>
</svg>
