<?xml version="1.0" encoding="UTF-8" standalone="no"?>
<!DOCTYPE svg PUBLIC "-//W3C//DTD SVG 1.1//EN" "http://www.w3.org/Graphics/SVG/1.1/DTD/svg11.dtd">
<svg xmlns:xl="http://www.w3.org/1999/xlink" xmlns:dc="http://purl.org/dc/elements/1.1/" version="1.1" xmlns="http://www.w3.org/2000/svg" viewBox="726.582 465.4219 206.88281 125.77536" width="206.88281" height="125.77536">
  <defs>
    <marker orient="auto" overflow="visible" markerUnits="strokeWidth" id="StickArrow_Marker" stroke-linejoin="miter" stroke-miterlimit="10" viewBox="-1 -6 14 12" markerWidth="14" markerHeight="12" color="#666">
      <g>
        <path d="M 12 0 L 0 0 M 0 -4.5 L 12 0 L 0 4.5" fill="none" stroke="currentColor" stroke-width="1"/>
      </g>
    </marker>
  </defs>
  <g id="02__Simple_Edges" stroke-dasharray="none" stroke="none" fill-opacity="1" fill="none" stroke-opacity="1">
    <title>02. Simple Edges</title>
    <g id="02__Simple_Edges_Layer_1">
      <title>Layer 1</title>
      <g id="Graphic_76">
        <rect x="727.082" y="465.9219" width="88" height="44" fill="white"/>
        <rect x="727.082" y="465.9219" width="88" height="44" stroke="gray" stroke-linecap="round" stroke-linejoin="round" stroke-width="1"/>
        <text transform="translate(732.082 478.6979)" fill="black">
          <tspan font-family="Helvetica Neue" font-size="16" fill="black" x="19.152" y="15" xml:space="preserve">Class</tspan>
        </text>
      </g>
      <g id="Graphic_75">
        <ellipse cx="771.082" cy="568.69724" rx="44.0000703076834" ry="22.0000351538418" fill="white"/>
        <ellipse cx="771.082" cy="568.69724" rx="44.0000703076834" ry="22.0000351538418" stroke="gray" stroke-linecap="round" stroke-linejoin="round" stroke-width="1"/>
        <text transform="translate(740.882 560.50124)" fill="black">
          <tspan font-family="Helvetica Neue" font-size="14" fill="black" x=".38000076" y="13" xml:space="preserve">Individual</tspan>
        </text>
      </g>
      <g id="Line_74">
        <line x1="771.082" y1="546.6972" x2="771.082" y2="523.8219" marker-end="url(#StickArrow_Marker)" stroke="#666" stroke-linecap="round" stroke-linejoin="round" stroke-width="1"/>
      </g>
      <g id="Graphic_79">
        <rect x="844.9648" y="465.9219" width="88" height="44" fill="white"/>
        <path d="M 844.9648 465.9219 L 932.9648 465.9219 L 932.9648 509.9219 L 844.9648 509.9219 Z" stroke="gray" stroke-linecap="round" stroke-linejoin="round" stroke-dasharray="1.0,5.0" stroke-width="1"/>
        <text transform="translate(849.9648 478.6979)" fill="black">
          <tspan font-family="Helvetica Neue" font-size="16" fill="black" x="7.584" y="15" xml:space="preserve">datatype</tspan>
        </text>
      </g>
      <g id="Graphic_78">
        <ellipse cx="888.9648" cy="568.69724" rx="44.0000703076834" ry="22.0000351538418" fill="white"/>
        <path d="M 920.0775 553.1409 C 937.2607 561.7324 937.2607 575.66204 920.0775 584.2536 C 902.8945 592.84514 875.0352 592.84514 857.8522 584.2536 C 840.669 575.66204 840.669 561.7324 857.8522 553.1409 C 875.0352 544.5493 902.8945 544.5493 920.0775 553.1409" stroke="gray" stroke-linecap="round" stroke-linejoin="round" stroke-dasharray="1.0,5.0" stroke-width="1"/>
        <text transform="translate(858.7648 560.50124)" fill="black">
          <tspan font-family="Helvetica Neue" font-size="14" fill="black" x="13.344" y="13" xml:space="preserve">Value</tspan>
        </text>
      </g>
      <g id="Line_77">
        <line x1="888.9648" y1="546.6972" x2="888.9648" y2="523.8219" marker-end="url(#StickArrow_Marker)" stroke="#666" stroke-linecap="round" stroke-linejoin="round" stroke-dasharray="1.0,5.0" stroke-width="1"/>
      </g>
    </g>
  </g>
</svg>
