<?xml version="1.0" encoding="UTF-8" standalone="no"?>
<!DOCTYPE svg PUBLIC "-//W3C//DTD SVG 1.1//EN" "http://www.w3.org/Graphics/SVG/1.1/DTD/svg11.dtd">
<svg xmlns:xl="http://www.w3.org/1999/xlink" xmlns:dc="http://purl.org/dc/elements/1.1/" version="1.1" xmlns="http://www.w3.org/2000/svg" viewBox="281.2589 112.79472 376.4816 173.61983" width="376.4816" height="173.61983">
  <defs>
    <marker orient="auto" overflow="visible" markerUnits="strokeWidth" id="StickArrow_Marker" stroke-linejoin="miter" stroke-miterlimit="10" viewBox="-1 -6 14 12" markerWidth="14" markerHeight="12" color="#666">
      <g>
        <path d="M 12 0 L 0 0 M 0 -4.5 L 12 0 L 0 4.5" fill="none" stroke="currentColor" stroke-width="1"/>
      </g>
    </marker>
    <marker orient="auto" overflow="visible" markerUnits="strokeWidth" id="FilledBox_Marker" stroke-linejoin="miter" stroke-miterlimit="10" viewBox="-7 -4 8 8" markerWidth="8" markerHeight="8" color="#666">
      <g>
        <rect x="-6" y="-3" width="6" height="6" fill="currentColor" stroke="currentColor" stroke-width="1"/>
      </g>
    </marker>
  </defs>
  <g id="Nodes" stroke-dasharray="none" stroke="none" fill-opacity="1" fill="none" stroke-opacity="1">
    <title>01. Nodes</title>
    <g id="Nodes_Layer_1">
      <title>Layer 1</title>
      <g id="Graphic_56">
        <rect x="281.7589" y="121.90344" width="88" height="44" fill="white"/>
        <rect x="281.7589" y="121.90344" width="88" height="44" stroke="gray" stroke-linecap="round" stroke-linejoin="round" stroke-width="1"/>
        <text transform="translate(286.7589 134.67944)" fill="black">
          <tspan font-family="Helvetica Neue" font-size="16" fill="black" x="19.152" y="15" xml:space="preserve">Class</tspan>
        </text>
      </g>
      <g id="Graphic_55">
        <rect x="569.2405" y="121.90344" width="88" height="44" fill="white"/>
        <path d="M 569.2405 121.90344 L 657.2405 121.90344 L 657.2405 165.90344 L 569.2405 165.90344 Z" stroke="gray" stroke-linecap="round" stroke-linejoin="round" stroke-dasharray="1.0,5.0" stroke-width="1"/>
        <text transform="translate(574.2405 134.67944)" fill="black">
          <tspan font-family="Helvetica Neue" font-size="16" fill="black" x="7.584" y="15" xml:space="preserve">datatype</tspan>
        </text>
      </g>
      <g id="Graphic_59">
        <ellipse cx="325.7589" cy="217.57702" rx="44.0000703076834" ry="22.0000351538417" fill="white"/>
        <ellipse cx="325.7589" cy="217.57702" rx="44.0000703076834" ry="22.0000351538417" stroke="gray" stroke-linecap="round" stroke-linejoin="round" stroke-width="1"/>
        <text transform="translate(295.5589 209.38102)" fill="black">
          <tspan font-family="Helvetica Neue" font-size="14" fill="black" x=".38000076" y="13" xml:space="preserve">Individual</tspan>
        </text>
      </g>
      <g id="Graphic_58">
        <ellipse cx="613.2405" cy="217.57702" rx="44.0000703076834" ry="22.0000351538417" fill="white"/>
        <path d="M 644.3532 202.02068 C 661.5363 210.6122 661.5363 224.54182 644.3532 233.13335 C 627.1701 241.72492 599.3109 241.72492 582.12785 233.13335 C 564.9447 224.54182 564.9447 210.6122 582.12785 202.02068 C 599.3109 193.42911 627.1701 193.42911 644.3532 202.02068" stroke="gray" stroke-linecap="round" stroke-linejoin="round" stroke-dasharray="1.0,5.0" stroke-width="1"/>
        <text transform="translate(583.0405 209.38102)" fill="black">
          <tspan font-family="Helvetica Neue" font-size="14" fill="black" x="13.344" y="13" xml:space="preserve">Value</tspan>
        </text>
      </g>
      <g id="Line_61">
        <line x1="325.7589" y1="195.577" x2="325.7589" y2="179.80344" marker-end="url(#StickArrow_Marker)" stroke="#666" stroke-linecap="round" stroke-linejoin="round" stroke-width="1"/>
      </g>
      <g id="Line_62">
        <line x1="613.2405" y1="195.577" x2="613.2405" y2="179.80344" marker-end="url(#StickArrow_Marker)" stroke="#666" stroke-linecap="round" stroke-linejoin="round" stroke-dasharray="1.0,5.0" stroke-width="1"/>
      </g>
      <g id="Group_69">
        <g id="Graphic_65">
          <rect x="425.4997" y="121.90344" width="88" height="44" fill="white"/>
          <rect x="425.4997" y="121.90344" width="88" height="44" stroke="gray" stroke-linecap="round" stroke-linejoin="round" stroke-width="1"/>
          <text transform="translate(427.4997 134.67944)" fill="black">
            <tspan font-family="Helvetica Neue" font-size="16" fill="black" x="9.4" y="15" xml:space="preserve">Ontology</tspan>
          </text>
        </g>
        <g id="Graphic_67">
          <path d="M 447.9461 113.29472 L 453.5577 121.90344 L 425.4997 121.90344 L 425.4997 113.29472 Z" fill="white"/>
          <path d="M 447.9461 113.29472 L 453.5577 121.90344 L 425.4997 121.90344 L 425.4997 113.29472 Z" stroke="gray" stroke-linecap="round" stroke-linejoin="round" stroke-width="1"/>
        </g>
      </g>
      <g id="Line_70">
        <line x1="418.9997" y1="143.90344" x2="383.6589" y2="143.90344" marker-end="url(#StickArrow_Marker)" marker-start="url(#FilledBox_Marker)" stroke="#666" stroke-linecap="round" stroke-linejoin="round" stroke-width="1"/>
      </g>
      <g id="Line_71">
        <line x1="519.9997" y1="143.90344" x2="555.3405" y2="143.90344" marker-end="url(#StickArrow_Marker)" marker-start="url(#FilledBox_Marker)" stroke="#666" stroke-linecap="round" stroke-linejoin="round" stroke-width="1"/>
      </g>
      <g id="Line_72">
        <path d="M 469.4997 172.40344 L 469.4997 177.40344 L 469.8198 203.6036 L 469.8198 217.57702 L 383.65893 217.57702" marker-end="url(#StickArrow_Marker)" marker-start="url(#FilledBox_Marker)" stroke="#666" stroke-linecap="round" stroke-linejoin="round" stroke-width="1"/>
      </g>
      <g id="Line_73">
        <path d="M 469.4997 172.40344 L 469.4997 177.40344 L 469.5946 204.5045 L 469.5946 217.57702 L 555.3405 217.57702" marker-end="url(#StickArrow_Marker)" marker-start="url(#FilledBox_Marker)" stroke="#666" stroke-linecap="round" stroke-linejoin="round" stroke-width="1"/>
      </g>
      <g id="Graphic_77">
        <path d="M 513.4997 254.93415 C 513.4997 250.76603 512.3821 250.25035 504.21835 246.12535 L 504.1321 246.08267 C 495.9252 241.91455 495.83987 241.91455 487.4174 241.91455 C 476.20267 241.91455 425.4997 241.91455 425.4997 241.91455 L 425.4997 285.91455 L 513.4997 285.91455 L 513.4997 254.93415 Z" fill="white"/>
        <path d="M 513.4997 254.93415 C 513.4997 250.76603 512.3821 250.25035 504.21835 246.12535 L 504.1321 246.08267 C 495.9252 241.91455 495.83987 241.91455 487.4174 241.91455 C 476.20267 241.91455 425.4997 241.91455 425.4997 241.91455 L 425.4997 285.91455 L 513.4997 285.91455 L 513.4997 254.93415 Z M 513.4997 254.71943 C 513.4997 250.76603 513.41347 250.76603 495.83987 250.76603 L 495.83987 250.76603 C 495.83987 241.95767 495.83987 241.91455 487.93307 241.91455" stroke="gray" stroke-linecap="round" stroke-linejoin="round" stroke-width="1"/>
        <text transform="translate(430.4997 256.74655)" fill="black">
          <tspan font-family="Helvetica Neue" font-size="12" fill="black" x="0" y="11" xml:space="preserve">axioms</tspan>
        </text>
      </g>
    </g>
  </g>
</svg>
