<?xml version="1.0" encoding="UTF-8" standalone="no"?>
<!DOCTYPE svg PUBLIC "-//W3C//DTD SVG 1.1//EN" "http://www.w3.org/Graphics/SVG/1.1/DTD/svg11.dtd">
<svg xmlns:xl="http://www.w3.org/1999/xlink" xmlns:dc="http://purl.org/dc/elements/1.1/" version="1.1" xmlns="http://www.w3.org/2000/svg" viewBox="699.5 870.418 474.3828 157.1875" width="474.3828" height="157.1875">
  <defs>
    <marker orient="auto" overflow="visible" markerUnits="strokeWidth" id="StickArrow_Marker" stroke-linejoin="miter" stroke-miterlimit="10" viewBox="-1 -4 10 8" markerWidth="10" markerHeight="8" color="#b1001c">
      <g>
        <path d="M 8 0 L 0 0 M 0 -3 L 8 0 L 0 3" fill="none" stroke="currentColor" stroke-width="1"/>
      </g>
    </marker>
    <marker orient="auto" overflow="visible" markerUnits="strokeWidth" id="StickArrow_Marker_2" stroke-linejoin="miter" stroke-miterlimit="10" viewBox="-9 -4 10 8" markerWidth="10" markerHeight="8" color="#b1001c">
      <g>
        <path d="M -8 0 L 0 0 M 0 3 L -8 0 L 0 -3" fill="none" stroke="currentColor" stroke-width="1"/>
      </g>
    </marker>
    <marker orient="auto" overflow="visible" markerUnits="strokeWidth" id="UMLInheritance_Marker" stroke-linejoin="miter" stroke-miterlimit="10" viewBox="-1 -10 17 20" markerWidth="17" markerHeight="20" color="#666">
      <g>
        <path d="M 15 0 L 0 -8.75 L 0 8.75 Z" fill="none" stroke="currentColor" stroke-width="1"/>
      </g>
    </marker>
    <marker orient="auto" overflow="visible" markerUnits="strokeWidth" id="FilledArrow_Marker" stroke-linejoin="miter" stroke-miterlimit="10" viewBox="-1 -7 18 14" markerWidth="18" markerHeight="14" color="#666">
      <g>
        <path d="M 16 0 L 0 -6 L 0 6 Z" fill="currentColor" stroke="currentColor" stroke-width="1"/>
      </g>
    </marker>
    <marker orient="auto" overflow="visible" markerUnits="strokeWidth" id="DoubleBar_Marker" stroke-linejoin="miter" stroke-miterlimit="10" viewBox="-19 -6 20 12" markerWidth="20" markerHeight="12" color="#666">
      <g>
        <path d="M -17.5 0 L 0 0 M -6.25 -5 L -6.25 5 M 0 -5 L 0 5" fill="none" stroke="currentColor" stroke-width="1"/>
      </g>
    </marker>
    <marker orient="auto" overflow="visible" markerUnits="strokeWidth" id="FilledDoubleArrow_Marker" stroke-linejoin="miter" stroke-miterlimit="10" viewBox="-1 -7 34 14" markerWidth="34" markerHeight="14" color="#666">
      <g>
        <path d="M 16 -6 L 16 0 L 0 -6 L 0 6 L 16 0 L 16 6 L 32 0 Z" fill="currentColor" stroke="currentColor" stroke-width="1"/>
      </g>
    </marker>
    <marker orient="auto" overflow="visible" markerUnits="strokeWidth" id="NonNavigable_Marker" stroke-linejoin="miter" stroke-miterlimit="10" viewBox="-1 -4 13 8" markerWidth="13" markerHeight="8" color="#b1001c">
      <g>
        <path d="M 10.5 0 L 0 0 M 6 3 L 0 -3 M 0 3 L 6 -3" fill="none" stroke="currentColor" stroke-width="1"/>
      </g>
    </marker>
    <marker orient="auto" overflow="visible" markerUnits="strokeWidth" id="NonNavigable_Marker_2" stroke-linejoin="miter" stroke-miterlimit="10" viewBox="-12 -4 13 8" markerWidth="13" markerHeight="8" color="#b1001c">
      <g>
        <path d="M -10.5 0 L 0 0 M -6 -3 L 0 3 M 0 -3 L -6 3" fill="none" stroke="currentColor" stroke-width="1"/>
      </g>
    </marker>
    <marker orient="auto" overflow="visible" markerUnits="strokeWidth" id="BarBall_Marker" stroke-linejoin="miter" stroke-miterlimit="10" viewBox="-24 -6 25 12" markerWidth="25" markerHeight="12" color="#666">
      <g>
        <path d="M -22.5 0 L -7.5 0 M -11.25 -5 L -11.25 5 M -1.09835 -2.65165 C .3661125 -1.1871838 .3661125 1.1871838 -1.09835 2.65165 C -2.5628125 4.1161125 -4.9371875 4.1161125 -6.40165 2.65165 C -7.866116 1.1871838 -7.866116 -1.1871838 -6.40165 -2.65165 C -4.9371875 -4.1161125 -2.5628125 -4.1161125 -1.09835 -2.65165" fill="none" stroke="currentColor" stroke-width="1"/>
      </g>
    </marker>
  </defs>
  <g id="00__Edge_Shapes" stroke-dasharray="none" stroke="none" fill-opacity="1" fill="none" stroke-opacity="1">
    <title>00. Edge Shapes</title>
    <g id="00__Edge_Shapes_Layer_1">
      <title>Layer 1</title>
      <g id="Line_33">
        <line x1="1116.4627" y1="890.818" x2="1116.4627" y2="900.7875" marker-end="url(#StickArrow_Marker)" marker-start="url(#StickArrow_Marker_2)" stroke="#b1001c" stroke-linecap="round" stroke-linejoin="round" stroke-width="1"/>
      </g>
      <g id="Line_16">
        <line x1="720" y1="880.918" x2="784.418" y2="880.918" marker-end="url(#UMLInheritance_Marker)" stroke="#666" stroke-linecap="round" stroke-linejoin="round" stroke-width="1"/>
      </g>
      <g id="Line_13">
        <line x1="720" y1="949.0117" x2="783.018" y2="949.0117" marker-end="url(#FilledArrow_Marker)" stroke="#666" stroke-linecap="round" stroke-linejoin="round" stroke-width="1"/>
      </g>
      <g id="Line_10">
        <line x1="959.1504" y1="880.918" x2="896.2324" y2="880.918" marker-start="url(#DoubleBar_Marker)" stroke="#666" stroke-linecap="round" stroke-linejoin="round" stroke-width="1"/>
      </g>
      <g id="Graphic_38">
        <rect x="700" y="870.918" width="20" height="20" fill="white"/>
        <rect x="700" y="870.918" width="20" height="20" stroke="gray" stroke-linecap="round" stroke-linejoin="round" stroke-width="1"/>
      </g>
      <g id="Graphic_39">
        <rect x="800.918" y="870.918" width="20" height="20" fill="white"/>
        <rect x="800.918" y="870.918" width="20" height="20" stroke="gray" stroke-linecap="round" stroke-linejoin="round" stroke-width="1"/>
      </g>
      <g id="Graphic_41">
        <rect x="700" y="939.0117" width="20" height="20" fill="white"/>
        <rect x="700" y="939.0117" width="20" height="20" stroke="gray" stroke-linecap="round" stroke-linejoin="round" stroke-width="1"/>
      </g>
      <g id="Graphic_40">
        <rect x="800.918" y="939.0117" width="20" height="20" fill="white"/>
        <rect x="800.918" y="939.0117" width="20" height="20" stroke="gray" stroke-linecap="round" stroke-linejoin="round" stroke-width="1"/>
      </g>
      <g id="Graphic_43">
        <rect x="700" y="1007.1055" width="20" height="20" fill="white"/>
        <rect x="700" y="1007.1055" width="20" height="20" stroke="gray" stroke-linecap="round" stroke-linejoin="round" stroke-width="1"/>
      </g>
      <g id="Graphic_42">
        <rect x="800.918" y="1007.1055" width="20" height="20" fill="white"/>
        <rect x="800.918" y="1007.1055" width="20" height="20" stroke="gray" stroke-linecap="round" stroke-linejoin="round" stroke-width="1"/>
      </g>
      <g id="Line_44">
        <line x1="720" y1="1017.1055" x2="767.018" y2="1017.1055" marker-end="url(#FilledDoubleArrow_Marker)" stroke="#666" stroke-linecap="round" stroke-linejoin="round" stroke-width="1"/>
      </g>
      <g id="Graphic_48">
        <rect x="1052.4648" y="870.918" width="20" height="20" fill="white"/>
        <rect x="1052.4648" y="870.918" width="20" height="20" stroke="gray" stroke-linecap="round" stroke-linejoin="round" stroke-width="1"/>
      </g>
      <g id="Graphic_47">
        <rect x="1153.3828" y="870.918" width="20" height="20" fill="white"/>
        <rect x="1153.3828" y="870.918" width="20" height="20" stroke="gray" stroke-linecap="round" stroke-linejoin="round" stroke-width="1"/>
      </g>
      <g id="Graphic_50">
        <rect x="1052.4648" y="900.6875" width="20" height="20" fill="white"/>
        <rect x="1052.4648" y="900.6875" width="20" height="20" stroke="gray" stroke-linecap="round" stroke-linejoin="round" stroke-width="1"/>
      </g>
      <g id="Graphic_49">
        <rect x="1153.3828" y="900.6875" width="20" height="20" fill="white"/>
        <rect x="1153.3828" y="900.6875" width="20" height="20" stroke="gray" stroke-linecap="round" stroke-linejoin="round" stroke-width="1"/>
      </g>
      <g id="Line_51">
        <line x1="1072.4648" y1="880.918" x2="1135.4789" y2="880.918" marker-end="url(#FilledArrow_Marker)" stroke="#666" stroke-linecap="round" stroke-linejoin="round" stroke-width="1"/>
      </g>
      <g id="Line_52">
        <line x1="1153.3789" y1="910.6875" x2="1090.3648" y2="910.6875" marker-end="url(#FilledArrow_Marker)" stroke="#666" stroke-linecap="round" stroke-linejoin="round" stroke-width="1"/>
      </g>
      <g id="Graphic_58">
        <rect x="1052.4648" y="939.0117" width="20" height="20" fill="white"/>
        <rect x="1052.4648" y="939.0117" width="20" height="20" stroke="gray" stroke-linecap="round" stroke-linejoin="round" stroke-width="1"/>
      </g>
      <g id="Graphic_57">
        <rect x="1153.3828" y="939.0117" width="20" height="20" fill="white"/>
        <rect x="1153.3828" y="939.0117" width="20" height="20" stroke="gray" stroke-linecap="round" stroke-linejoin="round" stroke-width="1"/>
      </g>
      <g id="Graphic_56">
        <rect x="1052.4648" y="968.7812" width="20" height="20" fill="white"/>
        <rect x="1052.4648" y="968.7812" width="20" height="20" stroke="gray" stroke-linecap="round" stroke-linejoin="round" stroke-width="1"/>
      </g>
      <g id="Graphic_55">
        <rect x="1153.3828" y="968.7812" width="20" height="20" fill="white"/>
        <rect x="1153.3828" y="968.7812" width="20" height="20" stroke="gray" stroke-linecap="round" stroke-linejoin="round" stroke-width="1"/>
      </g>
      <g id="Line_54">
        <line x1="1072.4648" y1="949.0117" x2="1135.4789" y2="949.0117" marker-end="url(#FilledArrow_Marker)" stroke="#666" stroke-linecap="round" stroke-linejoin="round" stroke-width="1"/>
      </g>
      <g id="Line_53">
        <line x1="1153.3789" y1="978.7812" x2="1090.3648" y2="978.7812" marker-end="url(#FilledArrow_Marker)" stroke="#666" stroke-linecap="round" stroke-linejoin="round" stroke-width="1"/>
      </g>
      <g id="Line_60">
        <line x1="1116.9744" y1="961.0117" x2="1116.9744" y2="966.7812" marker-end="url(#NonNavigable_Marker)" marker-start="url(#NonNavigable_Marker_2)" stroke="#b1001c" stroke-linecap="round" stroke-linejoin="round" stroke-width="1"/>
      </g>
      <g id="Graphic_62">
        <rect x="876.2324" y="870.918" width="20" height="20" fill="white"/>
        <rect x="876.2324" y="870.918" width="20" height="20" stroke="gray" stroke-linecap="round" stroke-linejoin="round" stroke-width="1"/>
      </g>
      <g id="Graphic_61">
        <rect x="977.1504" y="870.918" width="20" height="20" fill="white"/>
        <rect x="977.1504" y="870.918" width="20" height="20" stroke="gray" stroke-linecap="round" stroke-linejoin="round" stroke-width="1"/>
      </g>
      <g id="Line_65">
        <line x1="954.1504" y1="949.0117" x2="896.2324" y2="949.0117" marker-start="url(#BarBall_Marker)" stroke="#666" stroke-linecap="round" stroke-linejoin="round" stroke-width="1"/>
      </g>
      <g id="Graphic_64">
        <rect x="876.2324" y="939.0117" width="20" height="20" fill="white"/>
        <rect x="876.2324" y="939.0117" width="20" height="20" stroke="gray" stroke-linecap="round" stroke-linejoin="round" stroke-width="1"/>
      </g>
      <g id="Graphic_63">
        <rect x="977.1504" y="939.0117" width="20" height="20" fill="white"/>
        <rect x="977.1504" y="939.0117" width="20" height="20" stroke="gray" stroke-linecap="round" stroke-linejoin="round" stroke-width="1"/>
      </g>
    </g>
  </g>
</svg>
